<svg enable-background="new 0 0 425.2 425.2" viewBox="0 0 425.2 425.2" xmlns="http://www.w3.org/2000/svg"><path d="m214.7 3.2c53.3 0 106.5-.1 159.8 0 31.4 0 47.7 16.3 47.8 47.5.1 107.7.1 215.5 0 323.2 0 28.9-17.7 47.7-46.7 47.8-108.6.3-217.2.3-325.9 0-26.1 0-46.6-20.4-46.7-46.5-.2-109.8-.2-219.7 0-329.5 0-23.3 19.8-42.3 43.6-42.4 56.1-.2 112.1-.1 168.1-.1z" fill="#5fadc4"/><path d="m105.3 302.2c0-28 0-56 0-84 0-9.9-1-8.7 9.1-8.7 51.3-.1 102.7.4 154-.4 37.9-.6 60.3-33.8 55.1-67.8-5.1-33.4-27.8-51.7-62.8-51.7-49.3-.1-98.7-.1-148 .1-5.7 0-7.8-1.2-7.5-7.3.6-9.7.3-19.5.1-29.3-.1-3.7 1-5.1 4.9-5.1 51.3.1 102.7-.2 154 .3 18.2.2 35.4 5.3 51.7 13.6 55.4 28 66.7 110.1 23.7 156.8-19.9 21.6-44.7 32.1-74.1 32.1-37.1 0-74.2.1-111.4-.1-5.7 0-7.5 1.1-7.5 7.2.3 43.1 0 86.2.3 129.3 0 6.3-1.9 7.8-7.8 7.5-9.3-.5-18.7-.4-28 0-4.7.2-6-1.3-6-6 .3-28.7.2-57.6.2-86.5z" fill="#fff"/></svg>